<?xml version="1.0" encoding="UTF-8" standalone="no"?>
<!DOCTYPE svg PUBLIC "-//W3C//DTD SVG 20010904//EN"
              "http://www.w3.org/TR/2001/REC-SVG-20010904/DTD/svg10.dtd">

<svg xmlns="http://www.w3.org/2000/svg"
     width="75.6614mm" height="76.9841mm"
     viewBox="0 0 286 291">
  <path id="Selection"
        fill="black" stroke="black" stroke-width="1"
        d="M 141.00,0.86
           C 141.00,0.86 128.00,0.86 128.00,0.86
             119.45,1.99 109.23,4.24 101.00,6.72
             66.55,17.10 37.18,41.99 19.43,73.00
             -25.51,151.50 12.58,256.27 100.00,283.97
             118.46,289.82 138.78,291.67 158.00,289.83
             174.67,288.24 192.10,282.80 207.00,275.24
             221.99,267.65 236.58,256.46 247.83,244.00
             301.30,184.80 297.50,90.91 238.00,37.17
             225.20,25.61 210.99,16.80 195.00,10.40
             179.50,4.20 166.58,1.68 150.00,0.86
             150.00,0.86 141.00,0.86 141.00,0.86 Z" />
</svg>
