<?xml version="1.0" encoding="UTF-8" standalone="no"?>
<!DOCTYPE svg PUBLIC "-//W3C//DTD SVG 20010904//EN"
              "http://www.w3.org/TR/2001/REC-SVG-20010904/DTD/svg10.dtd">

<svg xmlns="http://www.w3.org/2000/svg"
     width="44.1682mm" height="68.5185mm"
     viewBox="0 0 167 259">
  <path id="Selection"
        fill="#000000" stroke="black" stroke-width="1"
        d="M 72.00,259.00
           C 72.00,259.00 98.00,259.00 98.00,259.00
             98.00,259.00 98.00,162.00 98.00,162.00
             107.98,161.18 119.39,157.03 128.00,151.99
             150.85,138.61 166.68,113.80 167.00,87.00
             167.18,70.92 166.38,58.80 159.03,44.00
             145.79,17.35 117.75,0.05 88.00,0.00
             88.00,0.00 79.00,0.00 79.00,0.00
             55.01,0.04 30.63,11.85 16.13,31.00
             6.55,43.66 0.19,60.01 0.00,76.00
             0.00,76.00 0.00,85.00 0.00,85.00
             0.04,108.79 11.26,131.36 30.00,145.98
             38.36,152.51 46.01,156.10 56.00,159.33
             59.06,160.32 68.85,162.02 70.40,163.59
             72.33,165.56 71.99,169.43 72.00,172.00
             72.00,172.00 72.00,259.00 72.00,259.00 Z" />
</svg>
