<?xml version="1.0" encoding="UTF-8" standalone="no"?>
<!DOCTYPE svg PUBLIC "-//W3C//DTD SVG 20010904//EN"
              "http://www.w3.org/TR/2001/REC-SVG-20010904/DTD/svg10.dtd">

<svg xmlns="http://www.w3.org/2000/svg"
     width="246.914mm" height="246.914mm"
     viewBox="0 0 700 700">
  <path id="Selection #1"
        fill="black" stroke="black" stroke-width="1"
        d="M 108.00,313.00
           C 108.00,313.00 108.00,539.00 108.00,539.00
             108.03,559.04 117.81,572.97 139.00,573.00
             139.00,573.00 219.00,573.00 219.00,573.00
             219.00,573.00 236.00,574.00 236.00,574.00
             236.00,574.00 459.00,574.00 459.00,574.00
             459.00,574.00 474.00,573.00 474.00,573.00
             474.00,573.00 560.00,573.00 560.00,573.00
             564.49,572.99 566.62,573.10 571.00,571.64
             582.90,567.67 589.85,557.34 590.00,545.00
             590.00,545.00 590.00,534.00 590.00,534.00
             590.00,534.00 590.00,513.00 590.00,513.00
             590.00,513.00 590.00,313.00 590.00,313.00
             594.39,317.04 601.54,324.00 607.00,325.89
             621.58,330.96 637.81,321.97 638.90,306.00
             639.78,293.28 630.75,286.17 622.00,278.58
             622.00,278.58 611.00,268.17 611.00,268.17
             611.00,268.17 587.00,246.00 587.00,246.00
             587.00,246.00 534.00,196.91 534.00,196.91
             534.00,196.91 455.00,123.09 455.00,123.09
             455.00,123.09 416.00,87.00 416.00,87.00
             416.00,87.00 391.00,63.91 391.00,63.91
             391.00,63.91 367.00,41.42 367.00,41.42
             363.52,38.40 353.90,27.86 350.00,27.86
             346.24,27.86 335.48,39.21 332.00,42.28
             332.00,42.28 309.00,63.91 309.00,63.91
             309.00,63.91 281.00,89.96 281.00,89.96
             281.00,89.96 231.00,136.09 231.00,136.09
             231.00,136.09 124.00,235.91 124.00,235.91
             124.00,235.91 81.00,275.91 81.00,275.91
             75.30,281.22 65.33,288.76 62.56,296.00
             57.06,310.42 66.12,326.26 82.00,326.96
             94.49,327.51 99.82,321.18 108.00,313.00 Z" />
</svg>
