<?xml version="1.0" encoding="UTF-8" standalone="no"?>
<!DOCTYPE svg PUBLIC "-//W3C//DTD SVG 20010904//EN"
              "http://www.w3.org/TR/2001/REC-SVG-20010904/DTD/svg10.dtd">

<svg xmlns="http://www.w3.org/2000/svg"
     width="38.0852mm" height="31.2087mm"
     viewBox="0 0 144 118">
  <path id="Selection"
        fill="black" stroke="black" stroke-width="1"
        d="M 22.00,67.00
           C 19.02,65.24 16.95,64.03 15.09,60.96
             13.45,58.27 13.53,55.27 10.72,53.65
             9.45,52.92 6.51,52.27 5.04,52.22
             -2.00,52.02 0.70,61.01 2.35,65.00
             5.69,73.11 13.23,79.17 21.98,80.52
             28.31,81.49 27.96,77.13 31.63,72.00
             33.88,68.87 37.86,65.03 41.00,62.79
             59.76,49.36 84.02,58.90 93.00,79.00
             102.36,75.89 120.06,59.67 128.91,55.25
             133.55,52.93 138.24,58.55 142.11,52.77
             144.74,48.84 141.56,43.64 139.75,40.00
             139.75,40.00 125.75,11.00 125.75,11.00
             124.03,7.56 121.83,1.96 117.96,0.62
             111.40,-1.65 110.50,5.89 107.69,8.16
             105.32,10.07 96.37,12.29 93.00,13.34
             93.00,13.34 60.00,23.28 60.00,23.28
             44.28,28.00 31.06,30.98 24.26,48.00
             21.47,54.97 22.00,59.75 22.00,67.00 Z
           M 58.00,65.48
           C 48.73,67.06 41.71,70.32 37.04,79.00
             27.94,95.94 39.43,117.51 59.00,117.99
             64.09,118.11 67.31,117.90 72.00,115.67
             97.30,103.65 88.59,63.73 58.00,65.48 Z
           M 58.00,78.34
           C 61.14,78.06 63.05,77.96 66.00,79.45
             80.25,86.67 73.60,107.20 59.00,105.44
             44.47,103.70 41.60,82.75 58.00,78.34 Z
           M 58.31,88.07
           C 53.72,92.88 57.90,97.58 61.86,95.72
             66.13,93.71 65.64,86.13 58.31,88.07 Z" />
</svg>
