<?xml version="1.0" encoding="UTF-8" standalone="no"?>
<!DOCTYPE svg PUBLIC "-//W3C//DTD SVG 20010904//EN"
              "http://www.w3.org/TR/2001/REC-SVG-20010904/DTD/svg10.dtd">

<svg xmlns="http://www.w3.org/2000/svg"
     width="37.5562mm" height="17.7202mm"
     viewBox="0 0 142 67">
  <path id="Selection"
        fill="none" stroke="black" stroke-width="1"
        d="M 0.00,1.00
           C 0.00,1.00 0.00,67.00 0.00,67.00
             0.00,67.00 20.00,67.00 20.00,67.00
             20.00,57.40 18.48,46.32 23.97,38.01
             32.83,24.60 52.27,26.60 59.08,41.00
             61.99,47.15 61.00,59.87 61.00,67.00
             61.00,67.00 81.00,67.00 81.00,67.00
             81.00,59.87 80.01,47.15 82.92,41.00
             89.73,26.60 109.17,24.60 118.03,38.01
             123.52,46.32 122.00,57.40 122.00,67.00
             122.00,67.00 142.00,67.00 142.00,67.00
             142.00,67.00 142.00,1.00 142.00,1.00
             142.00,1.00 128.00,0.03 128.00,0.03
             128.00,0.03 114.00,1.00 114.00,1.00
             114.00,1.00 85.00,1.00 85.00,1.00
             85.00,1.00 71.00,0.03 71.00,0.03
             71.00,0.03 57.00,1.00 57.00,1.00
             57.00,1.00 27.00,1.00 27.00,1.00
             27.00,1.00 14.00,0.03 14.00,0.03
             14.00,0.03 0.00,1.00 0.00,1.00 Z" />
</svg>
