<?xml version="1.0" encoding="UTF-8" standalone="no"?>
<!DOCTYPE svg PUBLIC "-//W3C//DTD SVG 20010904//EN"
              "http://www.w3.org/TR/2001/REC-SVG-20010904/DTD/svg10.dtd">

<svg xmlns="http://www.w3.org/2000/svg"
     width="26.1905mm" height="26.448mm"
     viewBox="0 0 99 100">
  <path id="Selection"
        fill="none" stroke="black" stroke-width="1"
        d="M 1.00,29.00
           C 5.87,30.93 24.62,30.00 31.00,30.00
             31.00,30.00 98.00,30.00 98.00,30.00
             98.00,30.00 66.00,9.58 66.00,9.58
             63.16,7.81 53.53,1.38 51.00,0.80
             46.77,-0.15 39.62,5.40 36.00,7.68
             36.00,7.68 1.00,29.00 1.00,29.00 Z
           M 5.00,37.00
           C 5.00,37.00 6.00,51.00 6.00,51.00
             6.00,51.00 6.00,81.00 6.00,81.00
             6.00,81.00 17.00,81.00 17.00,81.00
             17.00,81.00 17.00,51.00 17.00,51.00
             17.00,51.00 18.00,37.00 18.00,37.00
             18.00,37.00 5.00,37.00 5.00,37.00 Z
           M 30.00,37.00
           C 30.00,37.00 31.00,51.00 31.00,51.00
             31.00,51.00 31.00,81.00 31.00,81.00
             31.00,81.00 43.00,81.00 43.00,81.00
             43.00,81.00 43.00,37.00 43.00,37.00
             43.00,37.00 30.00,37.00 30.00,37.00 Z
           M 56.00,37.00
           C 56.00,37.00 56.00,81.00 56.00,81.00
             56.00,81.00 68.00,81.00 68.00,81.00
             68.00,81.00 68.00,37.00 68.00,37.00
             68.00,37.00 56.00,37.00 56.00,37.00 Z
           M 81.00,37.00
           C 81.00,37.00 82.00,52.00 82.00,52.00
             82.00,52.00 82.00,81.00 82.00,81.00
             82.00,81.00 93.00,81.00 93.00,81.00
             93.00,81.00 93.00,50.00 93.00,50.00
             93.00,50.00 94.00,37.00 94.00,37.00
             94.00,37.00 81.00,37.00 81.00,37.00 Z
           M 2.00,88.00
           C 2.00,88.00 0.00,100.00 0.00,100.00
             0.00,100.00 99.00,100.00 99.00,100.00
             99.00,100.00 97.00,88.00 97.00,88.00
             97.00,88.00 2.00,88.00 2.00,88.00 Z" />
</svg>
