<?xml version="1.0" encoding="UTF-8" standalone="no"?>
<!DOCTYPE svg PUBLIC "-//W3C//DTD SVG 20010904//EN"
              "http://www.w3.org/TR/2001/REC-SVG-20010904/DTD/svg10.dtd">

<svg xmlns="http://www.w3.org/2000/svg"
     width="32.8042mm" height="32.8042mm"
     viewBox="0 0 124 124">
  <path id="Selection"
        fill="none" stroke="black" stroke-width="1"
        d="M 59.00,0.00
           C 59.00,0.00 59.00,8.00 59.00,8.00
             59.00,8.00 51.00,8.00 51.00,8.00
             51.00,8.00 51.00,15.00 51.00,15.00
             53.10,14.70 55.64,14.01 57.40,15.64
             60.04,18.08 59.54,29.91 57.40,32.62
             55.73,34.74 47.72,39.32 45.00,41.05
             45.00,41.05 14.00,61.00 14.00,61.00
             14.00,61.00 17.00,66.00 17.00,66.00
             17.00,66.00 31.00,59.00 31.00,59.00
             30.97,61.52 31.14,64.55 29.83,66.79
             27.88,70.12 14.04,77.61 10.00,79.99
             3.59,83.75 0.15,83.97 0.00,92.00
             0.00,92.00 0.00,124.00 0.00,124.00
             0.00,124.00 124.00,124.00 124.00,124.00
             124.00,124.00 124.00,93.00 124.00,93.00
             124.00,93.00 122.40,85.53 122.40,85.53
             122.40,85.53 101.00,72.20 101.00,72.20
             101.00,72.20 94.02,66.79 94.02,66.79
             94.02,66.79 93.00,59.00 93.00,59.00
             93.00,59.00 107.00,66.00 107.00,66.00
             107.00,66.00 110.00,62.00 110.00,62.00
             105.40,56.59 85.22,44.94 78.00,40.42
             71.14,36.13 65.17,34.83 65.00,26.00
             64.87,18.46 63.81,13.67 73.00,15.00
             73.00,15.00 73.00,8.00 73.00,8.00
             73.00,8.00 65.00,8.00 65.00,8.00
             65.00,8.00 65.00,0.00 65.00,0.00
             65.00,0.00 59.00,0.00 59.00,0.00 Z
           M 66.00,117.00
           C 66.00,117.00 58.00,117.00 58.00,117.00
             58.00,117.00 58.00,97.00 58.00,97.00
             58.02,94.14 57.80,88.63 62.00,88.63
             66.49,88.63 65.99,95.03 66.00,98.00
             66.00,98.00 66.00,117.00 66.00,117.00 Z" />
</svg>
